<svg xmlns="http://www.w3.org/2000/svg" width="100" height="100" viewBox="0 0 100 100"><defs><clipPath id="face-clip"><circle cx="50" cy="50" r="48"/></clipPath></defs><g clip-path="url(#face-clip)"><circle cx="50" cy="50" r="48" fill="#e3d9c3"/><path d="M25 48Q19 12 49 12Q79 11 76 50L79 73H21Z" fill="#3f322e"/><path d="M14 99Q12 72 35 69L64 69Q88 73 88 99Z" fill="#917341"/><path d="M40 61H61V75L50 82 39 74Z" fill="#c49171" stroke="#334b42" stroke-width="1.3"/><ellipse cx="50" cy="43" rx="22" ry="27" fill="#c49171" stroke="#334b42" stroke-width="1.5"/><path d="M28 38Q23 16 43 15Q63 10 73 28L73 38 65 26 55 31 35 29Z" fill="#3f322e"/><path d="m35 71 15 11 15-11-3 27H38Z" fill="#e6dec7"/><path d="m46 81 7 1 4 18H43Z" fill="#9e7257"/><path d="m34 36 10-1m13 0 9 2" stroke="#334b42" stroke-width="1.8" stroke-linecap="round" fill="none"/><circle cx="40" cy="44" r="1.7" fill="#334b42"/><circle cx="60" cy="44" r="1.7" fill="#334b42"/><path d="m50 45-2 7h4" fill="none" stroke="#9b6c52" stroke-width="1.4" stroke-linecap="round"/><path d="M45 59q5 3 10-1" fill="none" stroke="#334b42" stroke-width="1.4" stroke-linecap="round"/><circle cx="50" cy="50" r="48" fill="none" stroke="#334b42" stroke-width="1.5"/></g></svg>